<?xml version="1.0" encoding="UTF-8"?>
<svg viewBox="0 0 344 162" version="1.1" xmlns="http://www.w3.org/2000/svg" xmlns:xlink="http://www.w3.org/1999/xlink">
    <title>45B5C1B5-C01E-4589-8311-0531F885472C@1x</title>
    <g id="Page-2" stroke="none" stroke-width="1" fill="none" fill-rule="evenodd">
        <g id="Jitsi-Box-0-(after-quit)" transform="translate(-240.000000, -89.000000)">
            <g id="Group" transform="translate(240.000000, 90.000000)">
                <g id="Group-7" transform="translate(91.000000, 0.000000)" stroke="#FFFFFF" stroke-linecap="round" stroke-linejoin="round" stroke-width="1.7563">
                    <polygon id="Stroke-1" points="2.85450239e-16 39.9987144 69.2836253 9.13440766e-15 69.2836253 80"></polygon>
                    <polygon id="Stroke-2" points="69.2836253 9.13440766e-15 138.564679 39.9987144 69.2836253 80"></polygon>
                    <polygon id="Stroke-3" points="138.564679 39.9987144 138.564679 119.998714 69.2836253 80"></polygon>
                    <polygon id="Stroke-4" points="69.2836253 80 138.564679 119.998714 69.2836253 160"></polygon>
                    <polygon id="Stroke-5" points="69.2836253 80 2.85450239e-16 119.998714 69.2836253 160"></polygon>
                    <polygon id="Stroke-6" points="2.85450239e-16 39.9987144 2.85450239e-16 119.998714 69.2836253 80"></polygon>
                </g>
                <g id="Group-4" transform="translate(253.000000, 51.000000)" fill="#FFFFFF">
                    <path d="M5.5006,57.9735 C4.0496,57.2348 3.0998,55.9026 2.6513,53.9767 C2.5194,53.3436 2.3084,51.9256 2.0182,49.7227 C1.728,47.5198 1.4444,45.1785 1.1674,42.6986 C0.8904,40.2187 0.6859,38.2533 0.554,36.8023 C0.3166,33.7684 0.1649,30.6752 0.0989,27.5226 C0.033,24.37 0,21.7252 0,19.5883 C0,18.1374 0.0132,16.7523 0.0396,15.4332 C0.1187,12.1092 0.2638,9.8535 0.4749,8.6664 C0.6859,7.5847 1.0619,6.6943 1.6027,5.9952 C2.1435,5.2961 3.0339,4.5508 4.2738,3.7594 C6.4899,2.282 8.8774,1.2136 11.4364,0.554 C11.9904,0.3957 12.4851,0.277 12.9204,0.1979 C13.3557,0.1187 13.8767,0.066 14.4835,0.0396 C15.0903,0.0132 15.9477,0 17.0557,0 C18.1637,0 19.0079,0.0132 19.5883,0.0396 C20.1687,0.066 20.6502,0.1121 21.0327,0.1781 C21.4152,0.244 21.8176,0.343 22.2397,0.4749 C23.2158,0.7651 24.0798,1.108 24.8317,1.5038 C25.5835,1.8995 26.3816,2.4271 27.2258,3.0867 C29.4418,4.8278 31.1434,6.8592 32.3306,9.1808 C32.8583,10.2625 33.2144,11.1858 33.3991,11.9509 C33.5837,12.7159 33.6761,13.6657 33.6761,14.8001 C33.6761,17.6229 32.8978,20.4457 31.3413,23.2686 C30.7609,24.3502 30.1278,25.3659 29.4418,26.3156 C28.7559,27.2654 27.8589,28.3602 26.7509,29.6001 C26.1969,30.2069 25.722,30.7609 25.3263,31.2622 C24.9306,31.7634 24.7063,32.0932 24.6536,32.2515 C24.6008,32.3834 24.5744,32.5285 24.5744,32.6868 C24.5744,33.3727 25.1153,34.1246 26.1969,34.9424 C27.2785,35.7866 28.0898,36.6045 28.6306,37.3959 C29.1714,38.1874 29.521,39.1371 29.6793,40.2451 C29.732,40.6408 29.7584,41.0498 29.7584,41.4719 C29.7584,43.1075 29.2967,44.8883 28.3734,46.8141 C27.2126,49.1885 25.5769,51.2594 23.4664,53.027 C20.3798,55.3749 16.8446,56.8259 12.861,57.3799 C12.2015,57.4591 11.5485,57.5646 10.9022,57.6965 C10.2558,57.8284 9.7612,57.9603 9.4182,58.0922 C8.7323,58.3297 8.086,58.4484 7.4792,58.4484 C6.7933,58.4484 6.1337,58.2901 5.5006,57.9735 Z M14.0482,31.8558 C14.2592,31.7239 14.6286,31.46 15.1562,31.0643 C15.6838,30.6686 16.2511,30.2201 16.8578,29.7189 C23.5324,24.126 26.8696,19.2058 26.8696,14.9584 C26.8696,13.8503 26.6454,12.7951 26.1969,11.7926 C25.0889,9.6821 23.3873,8.2443 21.0921,7.4792 C20.116,7.2154 18.9552,7.0835 17.6097,7.0835 C17.214,7.0835 16.7919,7.0967 16.3434,7.123 C14.4439,7.2286 12.9534,7.5452 11.8717,8.0728 C11.3968,8.3102 11.0275,8.6796 10.7637,9.1808 C10.6582,9.3919 10.5856,9.6095 10.546,9.8338 C10.5065,10.058 10.4867,10.3284 10.4867,10.645 L10.4867,11.199 C10.4867,11.8058 10.5262,12.7291 10.6054,13.9691 C10.6845,15.1562 10.7439,16.6732 10.7835,18.5199 C10.823,20.3666 10.8428,22.055 10.8428,23.5851 C10.8428,26.5135 10.8956,28.5713 11.0011,29.7584 C11.1066,30.9456 11.2913,31.6711 11.5551,31.9349 C11.8189,32.1724 12.1883,32.2911 12.6632,32.2911 C13.138,32.2911 13.5997,32.146 14.0482,31.8558 Z M15.6311,50.2569 C17.0821,49.4655 18.6518,47.8298 20.3402,45.3499 C21.5801,43.4769 22.2001,42.1314 22.2001,41.3136 C22.2001,41.1817 22.1869,41.0629 22.1605,40.9574 C22.0814,40.5617 21.8571,40.1858 21.4878,39.8296 C21.1185,39.4735 20.6963,39.2294 20.2215,39.0975 C19.6938,38.9656 19.0607,38.8997 18.322,38.8997 C17.8471,38.8997 17.3327,38.926 16.7787,38.9788 C15.3541,39.1371 14.1933,39.4405 13.2963,39.889 C12.4257,40.2583 11.9113,40.753 11.753,41.3729 C11.5947,41.9929 11.5156,42.6854 11.5156,43.4505 C11.5156,44.1364 11.5551,44.9542 11.6343,45.904 C11.8189,48.5949 12.2015,50.1118 12.7819,50.4548 C13.0193,50.5867 13.3227,50.6526 13.692,50.6526 L14.0482,50.6526 C14.5758,50.6263 15.1035,50.4944 15.6311,50.2569 Z" id="Fill-1"></path>
                    <path d="M41.4404,57.1821 C36.6389,55.4937 33.8293,49.6106 33.0115,39.5328 C32.9323,38.6622 32.8927,37.7521 32.8927,36.8023 C32.8927,36.0373 32.9191,35.2458 32.9719,34.428 C33.0774,32.634 33.2885,31.0116 33.605,29.5606 C33.7106,29.0329 33.8293,28.413 33.9612,27.7007 C34.0931,26.9884 34.2118,26.342 34.3173,25.7616 C34.5548,24.2579 34.746,23.1103 34.8911,22.3188 C35.0362,21.5274 35.1813,20.9074 35.3264,20.4589 C35.4715,20.0104 35.6628,19.562 35.9002,19.1135 C37.404,16.2643 38.9209,14.7012 40.4511,14.4241 C41.9812,14.1471 42.9705,14.0086 43.419,14.0086 C45.5295,14.0086 47.6005,14.9056 49.6318,16.6996 C52.3228,19.1794 54.2618,22.7673 55.449,27.4632 C55.6864,28.4921 55.8909,29.2176 56.0624,29.6397 C56.2338,30.0618 56.4383,30.3784 56.6757,30.5895 C56.9659,30.8797 57.21,31.0643 57.4078,31.1435 C57.6057,31.2226 57.9025,31.2622 58.2982,31.2622 C59.3798,31.2622 61.3057,30.8005 64.0758,29.8772 C64.577,29.7189 65.0453,29.5738 65.4806,29.4419 C65.9159,29.3099 66.1995,29.244 66.3314,29.244 C66.6216,29.244 66.8194,29.3429 66.925,29.5408 C67.0305,29.7387 67.0833,29.9035 67.0833,30.0354 C67.0833,30.1674 67.0437,30.3124 66.9645,30.4707 C66.6216,31.0511 65.7312,31.7568 64.2934,32.5879 C62.8556,33.4189 61.2266,34.1774 59.4062,34.8633 C58.4301,35.2062 57.698,35.5492 57.21,35.8922 C56.7219,36.2351 56.346,36.7561 56.0821,37.4553 C55.8183,38.1544 55.5545,39.203 55.2907,40.6013 C54.6048,43.7934 53.6353,46.7284 52.3821,49.4061 C51.129,52.0838 49.7769,54.0822 48.326,55.4013 C47.3235,56.2455 46.3407,56.793 45.3778,57.0436 C44.4149,57.2942 43.63,57.4195 43.0233,57.4195 C42.4693,57.4195 41.9416,57.3404 41.4404,57.1821 Z M50.1067,30.8665 C50.1859,30.7873 50.2716,30.6554 50.3639,30.4707 C50.4563,30.2861 50.542,30.0882 50.6212,29.8772 C50.6739,29.6661 50.7003,29.4287 50.7003,29.1649 C50.7003,28.5053 50.5288,27.7139 50.1859,26.7905 C49.7374,25.5242 49.1042,24.304 48.2864,23.1301 C47.4686,21.9561 46.6375,21.1317 45.7933,20.6568 C45.2129,20.393 44.6457,20.2611 44.0917,20.2611 C43.5377,20.2611 43.1024,20.393 42.7858,20.6568 C42.4693,20.947 42.3044,21.2108 42.2912,21.4482 C42.278,21.6857 42.2714,21.8308 42.2714,21.8835 C42.2714,22.332 42.4033,22.9652 42.6671,23.783 C42.799,24.3106 42.9309,24.8647 43.0628,25.445 C43.1947,26.0254 43.2871,26.5135 43.3398,26.9092 C43.419,27.305 43.5047,27.6809 43.5971,28.037 C43.6894,28.3932 43.7883,28.6372 43.8939,28.7691 C44.2896,29.3495 44.903,29.8574 45.734,30.2927 C46.565,30.728 47.2509,30.9852 47.7917,31.0643 C48.3326,31.1435 48.7085,31.183 48.9195,31.183 C49.4208,31.183 49.8165,31.0775 50.1067,30.8665 Z M46.1099,48.674 C46.875,48.12 47.6334,47.0845 48.3853,45.5676 C49.1372,44.0507 49.6648,42.6722 49.9682,41.4323 C50.2716,40.1923 50.4233,39.269 50.4233,38.6622 C50.4233,38.1874 50.3573,37.8048 50.2254,37.5146 C50.0408,37.1717 49.7506,36.9012 49.3548,36.7034 C48.9591,36.5055 48.3523,36.3274 47.5345,36.1692 C46.532,35.9581 45.701,35.8526 45.0415,35.8526 C44.4083,35.8526 43.9334,35.9581 43.6169,36.1692 C43.1947,36.433 42.9177,36.8683 42.7858,37.475 C42.6539,38.0818 42.588,39.1239 42.588,40.6013 C42.588,45.007 43.0628,47.632 44.0126,48.4762 C44.3292,48.8455 44.6853,49.0302 45.081,49.0302 C45.3976,49.0302 45.7406,48.9115 46.1099,48.674 Z" id="Fill-2"></path>
                    <path d="M80.4273,54.3329 C79.6622,54.0954 78.818,53.4755 77.8946,52.473 C76.9713,51.4705 75.7181,49.7821 74.1352,47.4077 C73.1855,45.9567 72.4468,44.9608 71.9192,44.42 C71.3916,43.8792 70.9167,43.6088 70.4946,43.6088 C70.2044,43.6088 69.8944,43.7011 69.5646,43.8858 C69.2349,44.0704 68.7798,44.4134 68.1994,44.9147 C67.619,45.4159 66.8144,46.1414 65.7855,47.0911 C64.9149,47.909 64.1498,48.5817 63.4903,49.1093 C62.8307,49.637 62.3954,49.9403 62.1844,50.0195 C61.947,50.0986 61.7227,50.1382 61.5117,50.1382 C61.1423,50.1382 60.8521,50.0195 60.6411,49.7821 C60.4564,49.571 60.3641,49.2808 60.3641,48.9115 C60.3641,48.674 60.4036,48.397 60.4828,48.0804 C60.5619,47.8166 60.8983,47.2033 61.4919,46.2403 C62.0855,45.2774 62.8176,44.176 63.6881,42.936 C64.5324,41.6961 65.2644,40.5815 65.8844,39.5922 C66.5044,38.6029 66.8803,37.9763 67.0122,37.7125 C67.1441,37.3959 67.2101,37.0793 67.2101,36.7627 L67.2101,36.6045 C67.2101,36.2087 67.0914,35.6811 66.8539,35.0216 C66.6165,34.362 66.2208,33.4255 65.6668,32.2119 C63.5562,27.3841 62.501,23.9809 62.501,22.0023 C62.501,21.5274 62.5537,21.1317 62.6593,20.8151 C62.7384,20.604 62.8637,20.3732 63.0352,20.1226 C63.2067,19.8719 63.3979,19.6411 63.609,19.43 C63.8201,19.219 64.0047,19.0607 64.163,18.9552 C64.3213,18.8497 64.506,18.7837 64.717,18.7573 C64.9281,18.7309 65.2447,18.7177 65.6668,18.7177 C66.2472,18.7177 66.6693,18.7573 66.9331,18.8365 C67.1969,18.9156 67.4739,19.0739 67.7641,19.3113 C68.239,19.6807 68.7204,20.2347 69.2085,20.9734 C69.6965,21.7121 70.2572,22.7937 70.8903,24.2183 C71.7345,26.0914 72.3677,27.2258 72.7898,27.6215 C73.2119,28.0173 73.5944,28.2151 73.9374,28.2151 C74.2276,28.2151 74.531,28.1228 74.8476,27.9381 C75.0322,27.8326 75.4345,27.4764 76.0545,26.8697 C76.6745,26.2629 77.3802,25.5374 78.1716,24.6932 C81.7068,20.7623 84.2262,18.388 85.73,17.5701 C86.5478,17.148 87.2865,16.937 87.946,16.937 C88.5528,16.937 89.0804,17.1217 89.5289,17.491 C90.0829,17.9395 90.3599,18.5199 90.3599,19.2322 C90.3599,19.7334 90.228,20.3006 89.9642,20.9338 C89.8323,21.1712 89.4102,21.7055 88.6979,22.5365 C87.9856,23.3675 87.1282,24.2843 86.1257,25.2868 C80.8757,30.7741 77.9078,34.151 77.2219,35.4173 C77.0108,35.8658 76.9053,36.3011 76.9053,36.7232 C76.9053,36.8287 76.9185,36.9474 76.9449,37.0793 C77.0504,37.5014 77.4659,38.4775 78.1914,40.0077 C78.9169,41.5378 79.8205,43.3186 80.9021,45.3499 C82.5378,48.4102 83.3556,50.6526 83.3556,52.0772 C83.3556,52.3411 83.3292,52.5785 83.2765,52.7896 C82.9071,53.8976 82.2476,54.4516 81.2978,54.4516 C81.034,54.4516 80.7438,54.412 80.4273,54.3329 Z" id="Fill-3"></path>
                </g>
                <g id="Group-6" transform="translate(0.000000, 60.000000)" fill="#FFFFFF">
                    <path d="M8.9414,9.8027 L8.9414,33.8174 C8.9414,36.1006 8.3535,37.8608 7.1777,39.0981 C6.002,40.3354 4.3682,40.9541 2.2764,40.9541 C1.8525,40.9541 1.4663,40.9233 1.1177,40.8618 C0.769,40.8003 0.3965,40.708 0,40.585 L0.2871,37.4062 C0.4785,37.4746 0.752,37.5327 1.1074,37.5806 C1.4629,37.6284 1.7568,37.6523 1.9893,37.6523 C2.8779,37.6523 3.5854,37.3516 4.1118,36.75 C4.6382,36.1484 4.9014,35.1709 4.9014,33.8174 L4.9014,9.8027 L8.9414,9.8027 Z M8.8184,4.04 L4.7783,4.04 L4.7783,0 L8.8184,0 L8.8184,4.04 Z" id="Fill-1"></path>
                    <path d="M19.723,31.9922 L15.683,31.9922 L15.683,9.8027 L19.723,9.8027 L19.723,31.9922 Z M19.723,4.1221 L15.683,4.1221 L15.683,0 L19.723,0 L19.723,4.1221 Z" id="Fill-2"></path>
                    <path d="M31.4685,4.4502 L31.4685,9.8027 L35.6726,9.8027 L35.6726,12.7969 L31.4685,12.7969 L31.4685,26.2705 C31.4685,27.3096 31.6838,28.041 32.1144,28.4648 C32.5451,28.8887 33.1159,29.1006 33.8268,29.1006 C34.0593,29.1006 34.3156,29.0732 34.5959,29.0186 C34.8762,28.9639 35.1257,28.8955 35.3444,28.8135 L35.8776,31.582 C35.5768,31.8281 35.1359,32.0298 34.5549,32.187 C33.9738,32.3442 33.3893,32.4228 32.8015,32.4228 C31.1608,32.4228 29.8552,31.9272 28.8845,30.936 C27.9138,29.9448 27.4284,28.3896 27.4284,26.2705 L27.4284,12.7969 L23.9011,12.7969 L23.9011,9.8027 L27.4284,9.8027 L27.4284,4.4502 L31.4685,4.4502 Z" id="Fill-3"></path>
                    <path d="M53.7549,26.1064 C53.7549,25.2178 53.4165,24.4863 52.7398,23.9121 C52.063,23.3379 50.7813,22.8389 48.8946,22.415 C46.2012,21.8271 44.1744,21.0308 42.814,20.0259 C41.4537,19.021 40.7735,17.6504 40.7735,15.9141 C40.7735,14.1094 41.5391,12.5713 43.0704,11.2998 C44.6016,10.0283 46.5977,9.3926 49.0586,9.3926 C51.6426,9.3926 53.6968,10.0557 55.2212,11.3818 C56.7456,12.708 57.4737,14.3213 57.4053,16.2217 L57.3643,16.3447 L53.5088,16.3447 C53.5088,15.374 53.1021,14.5024 52.2886,13.73 C51.4751,12.9575 50.3985,12.5713 49.0586,12.5713 C47.6231,12.5713 46.5567,12.8857 45.8594,13.5146 C45.1621,14.1436 44.8135,14.9023 44.8135,15.791 C44.8135,16.666 45.1211,17.3564 45.7364,17.8623 C46.3516,18.3682 47.6026,18.8193 49.4893,19.2158 C52.292,19.8174 54.377,20.6343 55.7442,21.6665 C57.1114,22.6987 57.795,24.083 57.795,25.8193 C57.795,27.7881 56.9986,29.3809 55.4058,30.5977 C53.813,31.8145 51.7315,32.4228 49.1612,32.4228 C46.3311,32.4228 44.1026,31.7051 42.4756,30.2695 C40.8487,28.834 40.0762,27.1592 40.1582,25.2451 L40.1993,25.1221 L44.0547,25.1221 C44.1231,26.5576 44.6563,27.6069 45.6543,28.27 C46.6524,28.9331 47.8213,29.2646 49.1612,29.2646 C50.5967,29.2646 51.7212,28.9741 52.5347,28.3931 C53.3482,27.812 53.7549,27.0498 53.7549,26.1064 Z" id="Fill-4"></path>
                    <path d="M67.3871,31.9922 L63.3471,31.9922 L63.3471,9.8027 L67.3871,9.8027 L67.3871,31.9922 Z M67.3871,4.1221 L63.3471,4.1221 L63.3471,0 L67.3871,0 L67.3871,4.1221 Z" id="Fill-5"></path>
                </g>
            </g>
        </g>
    </g>
</svg>