<?xml version="1.0" encoding="UTF-8"?>
<svg width="82px" height="91px" viewBox="0 0 82 91" version="1.1" xmlns="http://www.w3.org/2000/svg" xmlns:xlink="http://www.w3.org/1999/xlink">
    <title>58B2538F-5B22-4FEE-B8CB-6A3C366FB512@1x</title>
    <g id="Page-2" stroke="none" stroke-width="1" fill="none" fill-rule="evenodd">
        <g id="Jitsi-Box-4" transform="translate(-59.000000, -96.000000)" fill="#035CCD" fill-rule="nonzero">
            <g id="Group-3" transform="translate(25.009645, 78.081172)">
                <g id="Group-2" transform="translate(34.937877, 17.950302)">
                    <path d="M27.1994807,46.4835816 C27.1994807,46.7636032 27.1994807,47.0436247 27.23055,47.3236463 C27.4169661,53.3285534 32.6055458,59.4579146 40.0311179,59.4579146 C47.45669,59.4579146 52.6452697,53.3285534 52.8316858,47.3236463 C52.8316858,47.0436247 52.8627551,46.7636032 52.8627551,46.4835816 L52.8627551,20.7838236 L66.0050857,20.7838236 C54.4783608,8.27619324 40.0311179,0 40.0311179,0 C40.0311179,0 25.583875,8.27619324 14.0260807,20.7838236 L27.1684113,20.7838236 L27.1684113,46.4835816 L27.1994807,46.4835816 Z" id="Path"></path>
                    <path d="M69.6626761,46.7457942 C68.9748041,64.8175854 54.717093,75.1576309 40.428115,75.1576309 C26.139137,75.1576309 11.850159,64.8175854 11.1935539,46.7457942 L11.1935539,25.5999355 C4.2522998,32.5554015 0,41.6533995 0,52.0244961 C0.719138937,72.6735359 18.3536763,90.8384807 40.428115,90.8384807 C62.5025537,90.8384807 80.4184933,72.2698705 80.85623,52.0244961 C80.85623,41.6533995 76.6351971,32.5864527 69.6626761,25.5999355 L69.6626761,46.7457942 Z" id="Path"></path>
                </g>
            </g>
        </g>
    </g>
</svg>