<?xml version="1.0" encoding="UTF-8"?>
<svg width="312px" height="162px" viewBox="0 0 312 162" version="1.1" xmlns="http://www.w3.org/2000/svg" xmlns:xlink="http://www.w3.org/1999/xlink">
    <title>A0EECC94-9DE8-4000-81F0-91D82FED36C3@1x</title>
    <g id="Page-2" stroke="none" stroke-width="1" fill="none" fill-rule="evenodd">
        <g id="Jitsi-Box-0" transform="translate(-242.000000, -89.000000)">
            <g id="Group" transform="translate(242.000000, 90.000000)">
                <g id="Group-7" transform="translate(89.000000, 0.000000)" stroke="#FFFFFF" stroke-linecap="round" stroke-linejoin="round" stroke-width="1.7563">
                    <polygon id="Stroke-1" points="2.85450239e-16 39.9987144 69.2836253 9.13440766e-15 69.2836253 80"></polygon>
                    <polygon id="Stroke-2" points="69.2836253 9.13440766e-15 138.564679 39.9987144 69.2836253 80"></polygon>
                    <polygon id="Stroke-3" points="138.564679 39.9987144 138.564679 119.998714 69.2836253 80"></polygon>
                    <polygon id="Stroke-4" points="69.2836253 80 138.564679 119.998714 69.2836253 160"></polygon>
                    <polygon id="Stroke-5" points="69.2836253 80 2.85450239e-16 119.998714 69.2836253 160"></polygon>
                    <polygon id="Stroke-6" points="2.85450239e-16 39.9987144 2.85450239e-16 119.998714 69.2836253 80"></polygon>
                </g>
                <g id="Group-4" transform="translate(245.000000, 62.000000)" fill="#FFFFFF">
                    <path d="M4.05693062,16.2605232 L13.323823,16.2605232 C16.7402294,16.2605232 19.9430694,17.3529408 19.9430694,21.2605232 C19.9430694,24.5378261 17.7224249,26.6386622 14.2206445,26.6386622 L4.05693062,26.6386622 L4.05693062,16.2605232 Z M0,30 L14.7331076,30 C20.79716,30 24,25.7983278 24,21.3865719 C24,17.6890659 21.9501912,14.9159795 18.1921573,14.1596871 L18.1921573,14.075645 C21.0106827,12.9411849 22.718864,10.5462231 22.718864,7.35296947 C22.718864,4.41175584 21.1387875,2.26892023 19.1316657,1.09246062 C17.2953796,0 13.7508683,0 11.0604915,0 L0,0 L0,30 Z M4.05693062,3.36133778 L12.1708356,3.36133778 C15.6725723,3.36133778 18.6619334,3.94958912 18.6619334,8.10926186 C18.6619334,11.260516 16.7829164,12.8991854 12.1708356,12.8991854 L4.05693062,12.8991854 L4.05693062,3.36133778 Z" id="Fill-1"></path>
                    <path d="M26,18.5212264 C26,24.9408386 29.6394642,30 36.5000643,30 C43.3605358,30 47,24.9408386 47,18.5212264 C47,12.0591178 43.3605358,7 36.5000643,7 C29.6394642,7 26,12.0591178 26,18.5212264 Z M29.764997,18.5212264 C29.764997,13.1645032 32.7769259,10.1885361 36.5000643,10.1885361 C40.2232027,10.1885361 43.2351746,13.1645032 43.2351746,18.5212264 C43.2351746,23.8354968 40.2232027,26.8114639 36.5000643,26.8114639 C32.7769259,26.8114639 29.764997,23.8354968 29.764997,18.5212264 Z" id="Fill-2"></path>
                    <polygon id="Fill-3" points="46 30 50.3261636 30 56.374267 20.8936212 62.4219397 30 67 30 58.6 18.1276704 66.0759483 8 61.7919828 8 56.374267 15.7021355 51.1662497 8 46.5881895 8 54.1481033 18.4255507"></polygon>
                </g>
                <g id="Group-6" transform="translate(0.000000, 60.000000)" fill="#FFFFFF">
                    <path d="M8.9414,9.8027 L8.9414,33.8174 C8.9414,36.1006 8.3535,37.8608 7.1777,39.0981 C6.002,40.3354 4.3682,40.9541 2.2764,40.9541 C1.8525,40.9541 1.4663,40.9233 1.1177,40.8618 C0.769,40.8003 0.3965,40.708 0,40.585 L0.2871,37.4062 C0.4785,37.4746 0.752,37.5327 1.1074,37.5806 C1.4629,37.6284 1.7568,37.6523 1.9893,37.6523 C2.8779,37.6523 3.5854,37.3516 4.1118,36.75 C4.6382,36.1484 4.9014,35.1709 4.9014,33.8174 L4.9014,9.8027 L8.9414,9.8027 Z M8.8184,4.04 L4.7783,4.04 L4.7783,0 L8.8184,0 L8.8184,4.04 Z" id="Fill-1"></path>
                    <path d="M19.723,31.9922 L15.683,31.9922 L15.683,9.8027 L19.723,9.8027 L19.723,31.9922 Z M19.723,4.1221 L15.683,4.1221 L15.683,0 L19.723,0 L19.723,4.1221 Z" id="Fill-2"></path>
                    <path d="M31.4685,4.4502 L31.4685,9.8027 L35.6726,9.8027 L35.6726,12.7969 L31.4685,12.7969 L31.4685,26.2705 C31.4685,27.3096 31.6838,28.041 32.1144,28.4648 C32.5451,28.8887 33.1159,29.1006 33.8268,29.1006 C34.0593,29.1006 34.3156,29.0732 34.5959,29.0186 C34.8762,28.9639 35.1257,28.8955 35.3444,28.8135 L35.8776,31.582 C35.5768,31.8281 35.1359,32.0298 34.5549,32.187 C33.9738,32.3442 33.3893,32.4228 32.8015,32.4228 C31.1608,32.4228 29.8552,31.9272 28.8845,30.936 C27.9138,29.9448 27.4284,28.3896 27.4284,26.2705 L27.4284,12.7969 L23.9011,12.7969 L23.9011,9.8027 L27.4284,9.8027 L27.4284,4.4502 L31.4685,4.4502 Z" id="Fill-3"></path>
                    <path d="M53.7549,26.1064 C53.7549,25.2178 53.4165,24.4863 52.7398,23.9121 C52.063,23.3379 50.7813,22.8389 48.8946,22.415 C46.2012,21.8271 44.1744,21.0308 42.814,20.0259 C41.4537,19.021 40.7735,17.6504 40.7735,15.9141 C40.7735,14.1094 41.5391,12.5713 43.0704,11.2998 C44.6016,10.0283 46.5977,9.3926 49.0586,9.3926 C51.6426,9.3926 53.6968,10.0557 55.2212,11.3818 C56.7456,12.708 57.4737,14.3213 57.4053,16.2217 L57.3643,16.3447 L53.5088,16.3447 C53.5088,15.374 53.1021,14.5024 52.2886,13.73 C51.4751,12.9575 50.3985,12.5713 49.0586,12.5713 C47.6231,12.5713 46.5567,12.8857 45.8594,13.5146 C45.1621,14.1436 44.8135,14.9023 44.8135,15.791 C44.8135,16.666 45.1211,17.3564 45.7364,17.8623 C46.3516,18.3682 47.6026,18.8193 49.4893,19.2158 C52.292,19.8174 54.377,20.6343 55.7442,21.6665 C57.1114,22.6987 57.795,24.083 57.795,25.8193 C57.795,27.7881 56.9986,29.3809 55.4058,30.5977 C53.813,31.8145 51.7315,32.4228 49.1612,32.4228 C46.3311,32.4228 44.1026,31.7051 42.4756,30.2695 C40.8487,28.834 40.0762,27.1592 40.1582,25.2451 L40.1993,25.1221 L44.0547,25.1221 C44.1231,26.5576 44.6563,27.6069 45.6543,28.27 C46.6524,28.9331 47.8213,29.2646 49.1612,29.2646 C50.5967,29.2646 51.7212,28.9741 52.5347,28.3931 C53.3482,27.812 53.7549,27.0498 53.7549,26.1064 Z" id="Fill-4"></path>
                    <path d="M67.3871,31.9922 L63.3471,31.9922 L63.3471,9.8027 L67.3871,9.8027 L67.3871,31.9922 Z M67.3871,4.1221 L63.3471,4.1221 L63.3471,0 L67.3871,0 L67.3871,4.1221 Z" id="Fill-5"></path>
                </g>
            </g>
        </g>
    </g>
</svg>